<svg width="96" height="96" viewBox="0 0 96 96" fill="none" xmlns="http://www.w3.org/2000/svg">
<g clip-path="url(#clip0_129_27)">
<rect width="96" height="96" rx="48" fill="#15A900"/>
<path d="M33.6902 83.9545C33.5036 84.4849 33.3099 85.0268 33.1047 85.5611C32.2011 87.9102 31.0375 90.2004 28.9517 91.5288C27.781 92.2751 26.405 92.6522 25.0255 92.7765C20.0273 93.2306 15.2523 90.5009 11.5492 87.1126C7.30472 83.2304 3.02725 77.482 1.06234 71.6565C0.670827 70.5151 0.374432 69.3655 0.184154 68.2313C-0.298828 65.3479 0.173197 62.2998 1.54167 59.7134C1.55632 59.6876 1.57097 59.6586 1.58558 59.6324C3.48467 56.1417 8.12801 54.1587 11.758 56.3508C13.3495 57.3132 14.4619 58.9122 15.2523 60.5951C17.221 64.81 18.3441 68.7148 21.6447 72.1941C23.3498 73.9912 25.3292 75.4767 27.3931 76.852C28.937 77.8877 30.529 78.8572 32.0804 79.8525C32.8085 80.3209 33.5842 80.8735 33.899 81.6567C33.9463 81.7699 33.9792 81.8906 34.005 82.0152C34.1329 82.6667 33.9098 83.3285 33.6902 83.9545Z" fill="#4A4A4A"/>
<path d="M8.90358 61.1555C8.04481 61.191 7.19481 61.5376 6.53616 62.0985C5.87755 62.6593 5.40152 63.42 5.13001 64.2412C5.00778 64.6108 4.92509 65.0048 4.98511 65.389C5.12084 66.2586 5.98292 66.8796 6.8567 66.9802C7.73087 67.0812 8.60064 66.7653 9.38256 66.3621C10.0141 66.0369 10.6226 65.644 11.0899 65.109C11.6815 64.431 11.9859 63.5375 11.6492 62.664C11.4082 62.0383 10.8897 61.6383 10.2823 61.3901C9.83957 61.2096 9.37049 61.1365 8.90358 61.1555Z" fill="white"/>
<path d="M1.92127 62.3885C1.8437 62.7549 1.88395 63.1571 2.08995 63.4698C2.29559 63.7824 2.68381 63.984 3.05154 63.9142C3.36771 63.8537 3.62531 63.608 3.76728 63.3197C3.97364 62.901 3.99928 62.3219 3.90889 61.8696C3.79181 61.2844 3.37172 61.0011 2.77496 61.1193C2.30182 61.2131 2.00872 61.9767 1.92127 62.3885Z" fill="white"/>
<path d="M4.41196 58.5638C4.38087 58.6136 4.35527 58.6634 4.33661 58.7124C4.1723 59.1411 4.18436 59.7349 4.54991 60.0558C4.8862 60.3502 5.40686 60.3763 5.81084 60.184C6.21478 59.9921 6.50824 59.6142 6.67839 59.2006C6.83683 58.8149 6.7849 58.2272 6.47533 57.922C5.93927 57.3941 4.77826 57.9797 4.41196 58.5638Z" fill="white"/>
<path d="M8.35326 58.4882C8.35727 58.5047 8.36128 58.5212 8.36644 58.5384C8.47216 58.9112 8.82782 59.0924 9.11286 59.312C9.44876 59.5702 9.88017 59.7127 10.3039 59.6407C10.5549 59.5977 10.7931 59.4835 10.9838 59.3145C11.2359 59.091 11.2995 58.7482 11.2253 58.4313C11.0233 57.5721 10.0986 57.4246 9.33133 57.4769C8.76125 57.5163 8.20176 57.8422 8.35326 58.4882Z" fill="white"/>
<path d="M33.899 81.6566C33.7819 82.2056 33.6612 82.7357 33.5734 83.2188C33.4306 84.002 33.2844 84.7853 33.105 85.561C32.2011 87.91 31.0375 90.2003 28.9521 91.5286C27.781 92.275 26.4054 92.6521 25.0258 92.7764C20.0273 93.2305 15.2523 90.5008 11.5495 87.1125C7.30488 83.2303 3.02741 77.4818 1.0625 71.6564C1.60404 72.5202 2.12727 73.3579 2.76032 74.1741C4.43618 76.3326 6.22546 78.3704 8.37331 80.0758C12.746 83.5519 18.9737 85.3594 23.8218 81.5835C25.4026 80.3537 26.5991 78.6966 27.3931 76.8519C28.9374 77.8876 30.5289 78.8571 32.0804 79.8523C32.8085 80.3208 33.5842 80.8734 33.899 81.6566Z" fill="#333333"/>
<path d="M46.9159 97.8711C38.7504 98.0143 25.6068 94.1106 20.0557 92.1409L30.7997 77.9945H66.7924L78.79 89.813C71.5676 92.4393 55.0814 97.7278 46.9159 97.8711Z" fill="#333333"/>
<path d="M62.3098 82.5219C62.4964 83.0523 62.6901 83.5942 62.8953 84.1285C63.7989 86.4775 64.9625 88.7678 67.0483 90.0961C68.219 90.8425 69.595 91.2196 70.9745 91.3439C75.9727 91.798 80.7477 89.0683 84.4508 85.68C88.6953 81.7978 92.9727 76.0493 94.9377 70.2239C95.3292 69.0825 95.6256 67.9329 95.8158 66.7987C96.2988 63.9153 95.8268 60.8672 94.4583 58.2808C94.4437 58.255 94.429 58.226 94.4144 58.1998C92.5153 54.7091 87.872 52.7261 84.242 54.9182C82.6505 55.8805 81.5381 57.4796 80.7477 59.1625C78.779 63.3774 77.6559 67.2822 74.3553 70.7615C72.6502 72.5586 70.6708 74.0441 68.6069 75.4194C67.063 76.4551 65.471 77.4246 63.9196 78.4198C63.1915 78.8883 62.4158 79.4409 62.101 80.2241C62.0537 80.3373 62.0208 80.458 61.995 80.5826C61.8671 81.2341 62.0902 81.8959 62.3098 82.5219Z" fill="#4A4A4A"/>
<path d="M87.0967 59.7229C87.9554 59.7583 88.8054 60.105 89.4641 60.6659C90.1227 61.2267 90.5987 61.9874 90.8702 62.8086C90.9925 63.1782 91.0752 63.5721 91.0151 63.9564C90.8794 64.826 90.0173 65.447 89.1435 65.5476C88.2694 65.6486 87.3996 65.3327 86.6177 64.9295C85.9861 64.6043 85.3776 64.2114 84.9103 63.6764C84.3188 62.9984 84.0144 62.1049 84.351 61.2314C84.592 60.6057 85.1105 60.2057 85.7179 59.9575C86.1607 59.777 86.6298 59.7039 87.0967 59.7229Z" fill="white"/>
<path d="M94.079 60.9559C94.1565 61.3223 94.1163 61.7245 93.9103 62.0371C93.7047 62.3498 93.3164 62.5514 92.9487 62.4816C92.6325 62.4211 92.3749 62.1754 92.233 61.8871C92.0266 61.4684 92.001 60.8893 92.0914 60.437C92.2084 59.8518 92.6285 59.5685 93.2253 59.6867C93.6984 59.7805 93.9915 60.5441 94.079 60.9559Z" fill="white"/>
<path d="M91.588 57.1311C91.6191 57.1809 91.6447 57.2306 91.6634 57.2797C91.8277 57.7084 91.8156 58.3022 91.4501 58.6231C91.1138 58.9175 90.5931 58.9436 90.1892 58.7513C89.7852 58.5593 89.4918 58.1815 89.3216 57.7678C89.1632 57.3821 89.2151 56.7944 89.5247 56.4893C90.0607 55.9614 91.2217 56.5469 91.588 57.1311Z" fill="white"/>
<path d="M87.6467 57.0556C87.6427 57.0721 87.6387 57.0886 87.6336 57.1058C87.5278 57.4786 87.1722 57.6598 86.8871 57.8793C86.5512 58.1376 86.1198 58.2801 85.6961 58.2081C85.4451 58.1651 85.2069 58.0509 85.0162 57.8818C84.7641 57.6584 84.7005 57.3156 84.7747 56.9987C84.9767 56.1395 85.9014 55.992 86.6687 56.0442C87.2388 56.0836 87.7982 56.4095 87.6467 57.0556Z" fill="white"/>
<path d="M62.101 80.224C62.2181 80.773 62.3388 81.3031 62.4266 81.7862C62.5694 82.5694 62.7156 83.3527 62.895 84.1284C63.7989 86.4774 64.9625 88.7677 67.0479 90.096C68.219 90.8424 70.0784 91.2125 71.4579 91.3368C76.4564 91.7909 80.7695 89.188 84.4505 85.6798C88.6951 81.7976 92.9726 76.0492 94.9375 70.2238C94.396 71.0876 93.8727 71.9253 93.2397 72.7415C91.5638 74.8999 89.7745 76.9377 87.6267 78.6432C83.254 82.1192 77.0263 83.9268 72.1782 80.1509C70.5974 78.9211 69.4009 77.264 68.6069 75.4192C67.0626 76.455 65.4711 77.4244 63.9196 78.4197C63.1915 78.8881 62.4158 79.4407 62.101 80.224Z" fill="#333333"/>
<path d="M75.4061 39.0519C78.6802 35.9838 79.9337 29.782 76.8401 26.4808C73.7462 23.18 67.4766 24.0296 64.2025 27.0977C60.9288 30.1659 61.8908 34.2911 64.9847 37.592C68.0783 40.8932 72.1324 42.1202 75.4061 39.0519Z" fill="#4A4A4A"/>
<path d="M73.4549 36.0056C75.3072 34.2698 76.0167 30.7614 74.2661 28.8939C72.5159 27.0262 68.9689 27.5067 67.1166 29.2426C65.2647 30.9784 65.8091 33.3122 67.5593 35.1798C69.3091 37.0474 71.603 37.7415 73.4549 36.0056Z" fill="#EAEAE7"/>
<path d="M21.462 39.0519C18.1883 35.9838 16.9348 29.782 20.028 26.4808C23.122 23.18 29.3922 24.0296 32.6656 27.0977C35.9397 30.1659 34.9774 34.2911 31.8834 37.592C28.7902 40.8932 24.7361 42.1202 21.462 39.0519Z" fill="#4A4A4A"/>
<path d="M23.4133 36.0056C21.5613 34.2698 20.8519 30.7614 22.6021 28.8939C24.3523 27.0262 27.8996 27.5067 29.7515 29.2426C31.6038 30.9784 31.0595 33.3122 29.3092 35.1798C27.559 37.0474 25.2655 37.7415 23.4133 36.0056Z" fill="#EAEAE7"/>
<path d="M78.4087 52.2965C77.407 49.6811 76.766 47.0151 75.7052 44.3484C71.4573 33.6706 62.0835 26.879 50.7785 25.2628C50.3072 24.7644 49.6475 24.3919 49.1132 24.0641C47.8049 23.2617 46.3885 22.6363 44.9126 22.217C44.5627 22.1174 44.1391 22.0457 43.8751 22.2956C43.5227 22.6294 43.7609 23.2401 44.1215 23.5646C44.4818 23.8892 44.9595 24.1193 45.1662 24.558C44.1738 23.816 42.9658 23.3648 41.7299 23.2744C41.327 23.2452 40.8474 23.2931 40.6426 23.6411C40.4692 23.9349 40.5846 24.3304 40.8199 24.5782C41.0548 24.8259 41.3821 24.9602 41.6987 25.0871C40.9635 25.0842 40.2275 25.0817 39.4919 25.0787C39.0019 25.0765 38.5002 25.0769 38.04 25.2452C37.5801 25.4135 37.1629 25.7879 37.087 26.272C37.0315 26.6269 37.1722 26.9635 37.4143 27.2288C37.3388 27.1457 35.9109 27.9145 35.7558 27.9913C30.4232 30.6343 26.0045 34.8064 22.9034 39.8742C20.8939 43.1583 19.4384 46.6831 18.648 50.4203C18.2297 52.3997 16.9687 54.2727 16.2395 56.1716C15.4359 58.2634 14.8145 60.4359 14.5878 62.6714C13.4468 73.9183 23.8542 79.0536 33.4415 80.7426C33.5995 81.0072 33.7682 81.2597 33.9032 81.4864C34.9815 83.2986 36.6726 84.739 38.6338 85.5151C38.9285 85.6318 39.3275 85.7063 39.5098 85.4467C39.585 85.3407 39.599 85.2042 39.6022 85.0746C39.6233 84.2989 39.3497 83.5188 38.8487 82.9265C39.4228 83.6864 40.3063 84.1481 41.1945 84.4912C42.5769 85.0241 44.0477 85.3274 45.5279 85.3858C45.8123 85.3969 46.1726 85.3475 46.2542 85.0749C46.3011 84.9195 46.2299 84.7548 46.1493 84.6137C45.8273 84.0464 45.3291 83.5812 44.7418 83.2979C46.4505 84.0707 48.441 84.2018 50.2367 83.6596C51.7097 83.2151 51.7892 82.4878 51.2814 81.7683C51.9636 81.7428 52.6455 81.7095 53.3278 81.6673C62.981 81.071 76.3652 78.6715 80.6915 68.5806C81.979 65.5766 82.1541 62.1986 81.3218 59.0488C80.92 57.5282 80.2363 56.2145 79.5261 54.8275C79.0974 53.9902 78.7343 53.146 78.4087 52.2965Z" fill="white"/>
<path d="M33.4414 80.7425C33.5993 81.0071 33.768 81.2596 33.903 81.4863C34.9814 83.2985 36.6728 84.7389 38.6336 85.515C38.9284 85.6318 39.3273 85.7062 39.51 85.4466C39.5848 85.3406 39.5988 85.2041 39.602 85.0745C39.6235 84.2988 39.3496 83.5188 38.8489 82.9264C39.423 83.6864 40.3061 84.148 41.1947 84.4911C42.5771 85.024 44.0476 85.3273 45.5281 85.3857C45.8125 85.3968 46.1724 85.3474 46.2544 85.0749C46.3013 84.9194 46.2297 84.7547 46.1495 84.6136C45.8275 84.0463 45.329 83.5811 44.7416 83.2978C46.4507 84.0706 48.4412 84.2017 50.2365 83.6595C51.7095 83.2151 51.7891 82.4877 51.2812 81.7682C75.8289 80.8528 82.6636 70.3304 81.7586 61.449C78.5655 65.3176 69.1039 72.8169 43.5383 73.3047C23.5386 73.6865 17.3324 65.1331 15.6807 57.816C13.3693 64.5945 12.3203 77.0215 33.4414 80.7425Z" fill="#EAEAE7"/>
<path d="M24.3714 33.1621C24.3102 33.1983 24.2454 33.2441 24.2314 33.3136C24.2088 33.4197 24.3131 33.5061 24.4065 33.5617C24.8316 33.816 25.2904 34.0143 25.7675 34.15C24.6182 33.9986 23.4048 34.5419 22.7527 35.5002C22.6685 35.6239 22.5908 35.7805 22.652 35.917C22.7068 36.0389 22.8494 36.0908 22.9779 36.1256C23.4786 36.2602 23.9997 36.3195 24.5179 36.3012C23.0968 36.7125 21.9304 37.9061 21.5511 39.3361C21.3785 39.9866 21.3864 40.7499 21.8348 41.252C21.9429 41.3723 22.0923 41.479 22.2523 41.4586C22.3935 41.4411 22.502 41.3318 22.5994 41.2287C24.4631 39.2523 26.3183 37.2581 28.0946 35.202C30.1324 32.8438 25.9497 32.2247 24.3714 33.1621Z" fill="white"/>
<path d="M65.8598 31.2528C66.951 30.8704 68.2256 30.8415 69.333 30.9257C69.719 30.9549 70.2269 31.188 70.1144 31.5583C70.0768 31.6816 69.9737 31.7724 69.8716 31.8514C69.5095 32.1306 69.1023 32.3509 68.6708 32.5009C69.5457 32.6622 70.3977 32.9488 71.1928 33.3483C71.6626 33.5847 72.1816 34.0103 72.0559 34.5207C71.6451 34.5642 71.2343 34.6074 70.8235 34.651C72.0068 34.7666 72.8871 35.8661 73.2102 37.0107C73.3892 37.6456 73.3624 38.4762 72.7793 38.7846C72.4459 38.961 72.0251 38.8951 71.697 38.7092C71.3683 38.5237 71.1125 38.2343 70.8661 37.9489C69.8727 37.0799 68.9841 35.7765 68.1898 34.7227C67.3836 33.6531 66.2319 32.8961 65.1829 32.0581C65.0629 31.9623 64.9297 31.8324 64.9619 31.6824C65.2395 31.5053 65.5421 31.364 65.8598 31.2528Z" fill="white"/>
<path d="M49.4404 44.4737C48.4666 46.1702 48.2961 48.2037 48.2994 50.1595C48.3019 51.3227 48.3584 52.4913 48.5898 53.6313C49.3233 57.2427 51.803 60.3381 54.8572 62.3988C57.6725 64.2984 60.9956 65.4115 64.3793 65.7051C65.9855 65.8444 67.6412 65.7968 69.1554 65.2428C71.9435 64.2232 73.0097 61.1722 72.5154 58.4636C72.0083 55.6798 70.3111 53.2731 68.1132 51.5433C65.8541 49.7641 65.0845 47.1888 63.2995 45.1001C61.6543 43.1755 59.4797 41.8071 56.944 41.469C54.0238 41.0793 50.9635 41.8185 49.4404 44.4737Z" fill="#4A4A4A"/>
<path d="M34.8649 46.2694C35.6091 47.9319 35.7402 49.9242 35.7374 51.8409C35.7356 52.9809 35.6922 54.1262 35.5153 55.2432C34.9541 58.782 33.0578 61.8157 30.7206 63.8349C28.5675 65.6965 26.0254 66.787 23.4372 67.0746C22.2084 67.2114 20.9417 67.1645 19.7835 66.6219C17.6511 65.6224 16.8356 62.6327 17.2131 59.9785C17.601 57.2506 18.8996 54.8923 20.5807 53.1972C22.309 51.4538 22.8975 48.9304 24.263 46.8829C25.5215 44.9973 27.1851 43.6565 29.1247 43.3252C31.3584 42.943 33.6996 43.6676 34.8649 46.2694Z" fill="#4A4A4A"/>
<path d="M54.0599 64.975C54.0599 70.54 48.7734 75.0511 42.2528 75.0511C35.7319 75.0511 30.4458 70.54 30.4458 64.975C30.4458 59.4102 35.7319 54.8988 42.2528 54.8988C48.7734 54.8988 54.0599 59.4102 54.0599 64.975Z" fill="white"/>
<path d="M42.2528 75.0511C45.9502 75.0511 49.7368 73.5394 52.0575 70.5887C53.4693 68.7934 54.293 66.3871 54.1702 64.1047C54.0882 62.5826 53.0682 61.3284 52.6742 59.8755C53.0897 61.4072 53.3518 63.0102 53.1323 64.5824C52.8211 66.8179 51.6424 68.4371 49.504 69.1236C47.223 69.856 44.7816 70.106 42.4036 69.7865C40.0331 69.4681 37.6605 68.5724 36.0152 66.8362C34.3703 65.1 33.6042 62.4229 34.5361 60.2207C35.1481 58.7749 36.3891 57.6862 37.7127 56.8428C39.2466 55.8665 40.8131 55.3533 42.458 54.9078C42.3889 54.9067 42.322 54.8988 42.2528 54.8988C35.7319 54.8988 30.4458 59.4102 30.4458 64.975C30.4458 70.54 35.7319 75.0511 42.2528 75.0511Z" fill="#EAEAE7"/>
<path d="M36.6507 59.7756C36.6736 59.6764 36.7055 59.5786 36.7488 59.4823C37.0912 58.7141 37.9149 58.2843 38.7143 58.0207C40.1074 57.5612 41.6087 57.4319 43.0606 57.6465C43.9155 57.7725 44.7904 58.0383 45.405 58.6453C47.6945 60.9051 42.8944 63.8254 41.0991 64.4618C40.554 64.6548 39.1333 63.6155 38.758 63.3337C37.81 62.622 36.3488 61.1036 36.6507 59.7756Z" fill="#4A4A4A"/>
<path d="M47.4132 68.784C47.4132 70.9834 45.1011 72.7644 42.2507 72.7644C39.4006 72.7644 37.095 70.9834 37.095 68.784C37.095 68.552 37.1218 68.3192 37.1748 68.0936C38.2775 68.326 39.6929 68.1999 41.4868 67.3759C41.4868 67.3759 44.6624 68.8575 47.2402 67.7612C47.3531 68.0868 47.4132 68.4324 47.4132 68.784Z" fill="#F25863"/>
<path d="M47.3299 69.4759C46.5266 68.9602 45.412 68.64 44.1793 68.64C41.7308 68.64 39.7456 69.9017 39.7456 71.4578C39.7456 71.7712 39.829 72.0717 39.9777 72.3532C40.6639 72.6139 41.4335 72.7643 42.2504 72.7643C44.7946 72.7643 46.9047 71.3443 47.3299 69.4759Z" fill="#EF2E44"/>
<path d="M45.1568 68.6039C45.1568 68.6039 44.135 76.1953 50.3519 79.5482C50.3519 79.5482 49.9501 71.4203 45.1568 68.6039Z" fill="#15A900"/>
<path d="M45.5532 68.3674C45.5532 68.3674 50.8651 83.7179 66.8018 86.8498C66.8018 86.8498 56.0713 73.5794 45.5532 68.3674Z" fill="#3CBA2A"/>
<path d="M73.7628 77.4957C73.7628 77.4957 61.6843 76.2269 51.7185 72.234C49.9715 71.5299 48.2839 70.7456 46.7425 69.8689C46.4836 69.7224 46.2311 69.5698 45.9786 69.4237C45.686 69.2443 45.407 69.0649 45.1277 68.8786C45.0353 68.8192 44.9486 68.759 44.8623 68.6996C45.1545 68.4471 45.5266 68.1083 45.9256 67.6964C51.5594 67.9091 65.5447 69.284 73.7628 77.4957Z" fill="#15A900"/>
<path d="M38.1953 68.6952C37.8071 68.6952 37.4328 68.6573 37.0718 68.581C34.2125 67.9847 33.2842 65.2493 33.2458 65.1329C33.2458 65.1329 34.9889 67.1284 37.2763 67.6054C38.422 67.8475 39.7671 67.6176 41.2781 66.9228L41.488 66.8268L41.6968 66.9239C41.7272 66.9382 44.7084 68.297 47.0448 67.3028C48.2614 66.7928 50.5295 64.3557 50.5295 64.3557C49.9823 66.2886 48.9401 67.5893 47.4327 68.2207C45.0511 69.2317 42.2788 68.244 41.4905 67.9199C40.3115 68.436 39.2085 68.6949 38.1953 68.6952Z" fill="#4A4A4A"/>
<path d="M41.0936 67.6856C40.4242 66.8283 40.2194 65.0272 40.9471 64.1587C41.0284 64.0617 41.1369 63.966 41.263 63.9775C41.3583 63.9861 41.4381 64.0559 41.4954 64.1326C41.6795 64.3797 41.7017 64.712 41.6691 65.0182C41.5943 65.7195 41.3984 66.4565 41.8783 67.0725L41.0936 67.6856Z" fill="#4A4A4A"/>
<path d="M33.8262 55.0821C33.8262 55.3711 33.7968 55.6569 33.742 55.9312C33.4785 57.2742 32.6039 58.4227 31.3891 59.1182C30.5951 59.5759 29.6546 59.8428 28.6447 59.8428C25.7796 59.8428 23.46 57.7097 23.46 55.0821C23.46 52.4551 25.2087 49.9561 28.0738 49.9561C30.0171 49.9561 31.9746 51.1085 33.0283 52.6711C33.2371 52.978 33.409 53.3 33.5404 53.633C33.7231 54.1018 33.8262 54.5882 33.8262 55.0821Z" fill="white"/>
<path d="M33.7715 55.4711C33.7715 55.6287 33.7644 55.7823 33.7422 55.9324C33.4789 57.2754 32.6044 58.424 31.3896 59.1195C30.8993 59.3351 30.3578 59.4561 29.7869 59.4561C27.584 59.4561 25.7983 57.6704 25.7983 55.4711C25.7983 53.2682 27.584 51.4833 29.7869 51.4833C30.8405 51.4833 31.7953 51.889 32.5055 52.5584C32.9188 52.9395 33.2483 53.4115 33.4642 53.9379C33.6616 54.4103 33.7715 54.9264 33.7715 55.4711Z" fill="#1F1F1F"/>
<path d="M33.5403 53.633C33.4934 54.1348 33.0726 54.5226 32.5601 54.5226C32.015 54.5226 31.5759 54.0832 31.5759 53.5385C31.5759 52.9927 32.015 52.554 32.5601 52.554C32.7284 52.554 32.8896 52.5976 33.0285 52.6711C33.237 52.978 33.4092 53.3 33.5403 53.633Z" fill="white"/>
<path d="M28.0313 58.0696C28.0313 58.5262 27.661 58.8965 27.2044 58.8965C26.7478 58.8965 26.3774 58.5262 26.3774 58.0696C26.3774 57.613 26.7478 57.2427 27.2044 57.2427C27.661 57.2427 28.0313 57.613 28.0313 58.0696Z" fill="white"/>
<path d="M50.3518 55.0828C50.3518 57.7111 52.6718 59.842 55.534 59.842C58.3963 59.842 60.7163 57.7111 60.7163 55.0828C60.7163 52.4544 58.9671 49.9557 56.1045 49.9557C53.2423 49.9557 50.3518 52.4544 50.3518 55.0828Z" fill="white"/>
<path d="M51.3696 55.4693C51.3696 57.6711 53.1542 59.4561 55.3564 59.4561C57.5586 59.4561 59.3432 57.6711 59.3432 55.4693C59.3432 53.2671 57.5586 51.4822 55.3564 51.4822C53.1542 51.4822 51.3696 53.2671 51.3696 55.4693Z" fill="#1F1F1F"/>
<path d="M51.5967 53.5388C51.5967 54.0832 52.0375 54.5241 52.5823 54.5241C53.1259 54.5241 53.5671 54.0832 53.5671 53.5388C53.5671 52.9948 53.1259 52.554 52.5823 52.554C52.0375 52.554 51.5967 52.9948 51.5967 53.5388Z" fill="white"/>
<path d="M57.1108 58.0696C57.1108 58.5262 57.4808 58.8965 57.9374 58.8965C58.394 58.8965 58.7644 58.5262 58.7644 58.0696C58.7644 57.613 58.394 57.2427 57.9374 57.2427C57.4808 57.2427 57.1108 57.613 57.1108 58.0696Z" fill="white"/>
</g>
<defs>
<clipPath id="clip0_129_27">
<rect width="96" height="96" rx="48" fill="white"/>
</clipPath>
</defs>
</svg>
